{"glyphs":{":":{"x_min":0,"x_max":231,"ha":231,"o":"m 25 387 q 25 424 52 451 q 78 477 116 477 q 153 477 180 451 q 206 424 206 387 q 206 349 180 323 q 154 296 116 296 q 78 296 51 322 q 25 349 25 387 z m 25 84 q 25 122 52 148 q 79 175 116 175 q 153 175 180 148 q 206 122 206 84 q 206 46 180 20 q 154 -7 116 -7 q 78 -7 51 20 q 25 46 25 84 z"},"$":{"x_min":0,"x_max":551,"ha":551,"o":"m 230 -19 q 136 -10 80 21 q 25 53 25 95 q 25 128 47 148 q 68 168 105 168 q 123 168 181 150 q 238 132 278 132 q 312 132 335 153 q 358 174 358 205 q 358 239 334 259 q 311 280 234 303 q 122 336 78 382 q 33 428 33 505 q 33 588 86 648 q 139 708 230 726 l 230 776 q 230 804 240 817 q 249 830 270 830 q 292 830 301 818 q 310 807 310 776 l 310 730 q 392 724 438 695 q 485 667 485 625 q 485 593 466 574 q 446 556 412 556 q 393 556 350 569 q 307 581 285 581 q 249 581 228 564 q 206 547 206 520 q 206 477 301 447 q 323 440 335 436 q 437 402 484 350 q 531 298 531 220 q 531 127 469 61 q 408 -5 310 -16 l 310 -82 q 310 -110 300 -124 q 290 -137 270 -137 q 249 -137 239 -125 q 230 -112 230 -82 z"},"?":{"x_min":0,"x_max":509,"ha":509,"o":"m 154 285 l 154 348 q 154 376 161 390 q 169 404 188 412 q 198 417 221 422 q 245 427 257 432 q 285 443 299 463 q 313 483 313 512 q 313 539 292 559 q 272 578 243 578 q 217 578 196 568 q 175 557 151 531 q 148 528 142 521 q 101 476 70 476 q 42 476 23 497 q 5 517 5 549 q 5 617 76 673 q 146 728 243 728 q 346 728 415 664 q 483 600 483 505 q 483 423 436 367 q 388 310 308 295 l 308 292 q 308 246 287 220 q 266 194 230 194 q 194 194 174 218 q 154 241 154 285 z m 143 67 q 143 104 169 129 q 194 154 231 154 q 267 154 292 128 q 318 103 318 67 q 318 31 292 5 q 267 -21 231 -21 q 195 -21 169 5 q 143 31 143 67 z"},"<":{"x_min":0,"x_max":833,"ha":833,"o":"m 704 583 l 704 476 l 268 298 l 704 120 l 704 13 l 129 250 l 129 347 z"},"'":{"x_min":0,"x_max":172,"ha":172,"o":"m 39 702 l 133 702 l 133 429 l 39 429 z"},"=":{"x_min":0,"x_max":833,"ha":833,"o":"m 124 242 l 709 242 l 709 145 l 124 145 z m 124 452 l 709 452 l 709 355 l 124 355 z"},"a":{"x_min":0,"x_max":602,"ha":602,"o":"m 394 48 q 370 19 336 3 q 302 -12 262 -12 q 161 -12 92 67 q 23 147 23 266 q 23 384 94 464 q 166 545 268 545 q 308 545 339 531 q 370 518 394 489 q 408 514 427 526 q 446 539 469 539 q 509 539 528 511 q 547 483 547 425 l 547 108 q 547 50 528 21 q 508 -7 469 -7 q 443 -7 425 6 q 407 20 394 48 z m 186 268 q 186 210 214 175 q 243 139 288 139 q 333 139 361 175 q 389 211 389 268 q 389 324 361 359 q 332 394 288 394 q 243 394 215 359 q 186 324 186 268 z"},"L":{"x_min":0,"x_max":461,"ha":461,"o":"m 63 605 q 63 663 83 692 q 103 720 144 720 q 185 720 205 692 q 225 663 225 605 l 225 150 l 362 150 q 420 150 449 131 q 477 113 477 75 q 477 37 449 19 q 420 0 362 0 l 173 0 q 110 0 86 21 q 63 43 63 102 z"},"3":{"x_min":0,"x_max":542,"ha":542,"o":"m 385 391 q 445 360 474 315 q 503 270 503 209 q 503 111 431 45 q 358 -21 249 -21 q 205 -21 165 -7 q 125 7 89 34 q 47 66 24 104 q 0 142 0 176 q 0 210 21 231 q 41 253 73 253 q 94 253 110 243 q 125 234 145 208 q 147 205 152 198 q 201 130 251 130 q 287 130 312 156 q 337 182 337 221 q 337 258 315 277 q 294 295 234 305 q 196 311 181 327 q 166 344 166 377 q 166 408 181 424 q 196 439 234 448 q 271 457 290 475 q 308 493 308 521 q 308 549 292 565 q 277 582 250 582 q 219 582 178 544 l 176 543 q 173 540 166 533 q 124 493 90 493 q 62 493 43 513 q 23 533 23 561 q 23 624 93 677 q 164 731 253 731 q 344 731 405 675 q 466 619 466 537 q 466 492 446 457 q 427 421 385 391 z"},";":{"x_min":0,"x_max":231,"ha":231,"o":"m 101 -95 q 86 -122 69 -136 q 51 -150 31 -150 q 4 -150 -16 -132 q -35 -113 -35 -87 q -35 -76 -31 -63 q -27 -51 -19 -37 l 60 107 q 76 136 92 149 q 109 162 130 162 q 158 162 177 144 q 196 126 196 100 q 196 89 192 77 q 188 64 180 49 z m 25 387 q 25 424 52 451 q 78 477 116 477 q 153 477 180 451 q 206 424 206 387 q 206 349 180 323 q 154 296 116 296 q 78 296 51 322 q 25 349 25 387 z"},"J":{"x_min":0,"x_max":448,"ha":448,"o":"m 224 269 l 224 605 q 224 663 244 692 q 264 720 305 720 q 346 720 366 692 q 386 663 386 605 l 386 217 q 386 101 333 41 q 280 -19 178 -19 q 99 -19 46 15 q -7 49 -7 98 q -7 131 14 152 q 35 173 68 173 q 89 173 122 155 q 155 137 171 137 q 200 137 212 166 q 224 194 224 269 z"},"V":{"x_min":0,"x_max":576,"ha":576,"o":"m 213 47 l -4 591 q -8 601 -11 613 q -13 625 -13 637 q -13 672 11 695 q 35 718 71 718 q 97 718 114 702 q 131 686 145 648 l 295 244 l 434 642 q 448 685 466 701 q 484 718 514 718 q 551 718 572 698 q 593 678 593 643 q 593 629 590 615 q 587 601 582 587 l 372 53 q 358 17 339 1 q 320 -14 290 -14 q 262 -14 244 0 q 227 14 213 47 z"},"\"":{"x_min":0,"x_max":331,"ha":331,"o":"m 198 702 l 292 702 l 292 429 l 198 429 z m 39 702 l 133 702 l 133 429 l 39 429 z"},"7":{"x_min":0,"x_max":470,"ha":470,"o":"m 279 562 l 95 562 q 34 562 10 579 q -14 595 -14 634 q -14 672 11 691 q 36 711 83 711 l 349 711 q 408 711 438 689 q 467 667 467 622 q 467 610 462 594 q 458 578 450 561 l 216 55 q 198 16 177 -2 q 156 -21 131 -21 q 95 -21 71 2 q 47 24 47 58 q 47 71 52 88 q 57 104 69 129 z"},"S":{"x_min":0,"x_max":551,"ha":551,"o":"m 531 220 q 531 113 455 47 q 379 -19 255 -19 q 160 -19 92 15 q 25 49 25 95 q 25 128 47 148 q 68 168 105 168 q 123 168 181 150 q 238 132 278 132 q 312 132 335 153 q 358 174 358 205 q 358 239 334 259 q 311 280 234 303 q 122 336 78 382 q 33 428 33 505 q 33 604 105 667 q 176 730 291 730 q 375 730 430 700 q 485 670 485 625 q 485 593 466 574 q 446 556 412 556 q 393 556 350 569 q 307 581 285 581 q 249 581 228 564 q 206 547 206 520 q 206 477 301 447 q 323 440 335 436 q 437 402 484 350 q 531 298 531 220 z"},"}":{"x_min":0,"x_max":500,"ha":500,"o":"m 70 721 l 103 721 q 157 721 189 715 q 222 709 244 697 q 272 681 283 652 q 295 623 295 555 l 295 432 q 295 365 320 337 q 345 309 404 309 q 407 309 414 310 q 420 310 424 310 l 424 208 l 406 208 q 345 208 320 181 q 295 153 295 86 l 295 -37 q 295 -107 283 -135 q 272 -164 244 -179 q 221 -191 188 -197 q 156 -203 107 -203 q 101 -203 89 -203 q 77 -202 70 -202 l 70 -100 q 74 -100 82 -101 q 90 -101 93 -101 q 142 -101 159 -82 q 177 -63 177 -4 l 177 113 q 177 186 199 216 q 221 246 278 259 q 221 272 199 302 q 177 333 177 405 l 177 523 q 177 583 159 601 q 142 620 93 620 q 90 620 82 620 q 74 619 70 619 z"},"Z":{"x_min":0,"x_max":532,"ha":532,"o":"m 433 150 q 491 150 520 131 q 548 113 548 75 q 548 37 520 19 q 491 0 433 0 l 108 0 q 50 0 22 20 q -6 40 -6 81 q -6 102 2 122 q 11 142 39 179 l 329 564 l 120 564 q 61 564 33 582 q 5 600 5 637 q 5 674 34 692 q 62 711 120 711 l 395 711 q 467 711 500 692 q 534 673 534 632 q 534 596 490 537 l 487 533 l 204 150 z"},"x":{"x_min":0,"x_max":493,"ha":493,"o":"m 251 168 l 139 34 q 121 12 105 3 q 89 -7 71 -7 q 40 -7 18 16 q -5 39 -5 71 q -5 89 1 103 q 7 117 28 140 l 159 284 l 49 396 q 35 411 27 428 q 19 444 19 460 q 19 491 41 515 q 63 539 93 539 q 111 539 127 531 q 144 523 158 506 l 254 395 l 342 503 q 355 520 373 530 q 391 540 406 540 q 439 540 463 517 q 487 494 487 462 q 487 447 478 430 q 469 413 452 394 l 348 283 l 471 144 q 494 119 501 103 q 508 86 508 66 q 508 36 487 15 q 465 -7 436 -7 q 416 -7 400 2 q 383 12 364 34 z"},")":{"x_min":0,"x_max":324,"ha":324,"o":"m 118 325 q 118 451 82 576 q 46 702 46 707 q 46 737 62 753 q 79 769 108 769 q 132 769 150 752 q 169 734 184 698 q 217 620 236 523 q 254 425 254 325 q 254 234 238 144 q 222 54 191 -28 q 172 -77 153 -98 q 134 -119 108 -119 q 79 -119 62 -103 q 46 -86 46 -57 q 46 -51 82 75 q 118 201 118 325 z"},"&":{"x_min":0,"x_max":685,"ha":685,"o":"m 320 471 q 360 488 380 509 q 399 530 399 557 q 399 581 378 599 q 357 618 329 618 q 302 618 283 601 q 264 584 264 560 q 264 541 278 519 q 291 498 320 471 z m 400 163 l 269 313 q 227 293 204 265 q 181 236 181 202 q 181 161 208 135 q 234 109 277 109 q 307 109 338 123 q 370 136 400 163 z m 483 59 q 440 20 383 -1 q 326 -21 258 -21 q 155 -21 87 42 q 20 104 20 199 q 20 269 61 323 q 101 377 184 418 q 149 455 133 491 q 116 527 116 564 q 116 636 174 684 q 231 731 322 731 q 413 731 470 682 q 528 632 528 557 q 528 501 498 457 q 469 412 407 375 l 504 260 q 555 322 577 339 q 599 356 620 356 q 645 356 663 336 q 681 317 681 289 q 681 264 662 235 q 642 207 591 159 q 632 112 642 92 q 653 72 653 53 q 653 24 633 4 q 614 -15 585 -15 q 564 -15 542 0 q 520 16 483 59 z"},"_":{"x_min":0,"x_max":500,"ha":500,"o":"m 0 -136 l 500 -136 l 500 -236 l 0 -236 z"},"v":{"x_min":0,"x_max":463,"ha":463,"o":"m 142 69 l 5 418 q 0 430 -2 441 q -4 452 -4 461 q -4 494 18 517 q 40 539 72 539 q 102 539 121 521 q 140 503 153 462 l 239 188 l 324 472 q 334 504 353 521 q 371 537 398 537 q 431 537 452 516 q 472 495 472 460 q 472 449 469 436 q 466 423 460 408 l 327 64 q 310 20 290 3 q 270 -13 237 -13 q 203 -13 182 4 q 161 21 142 69 z"},"O":{"x_min":0,"x_max":755,"ha":755,"o":"m 204 353 q 204 253 251 194 q 299 134 377 134 q 455 134 502 194 q 550 253 550 353 q 550 456 503 517 q 456 577 377 577 q 298 577 251 517 q 204 456 204 353 z m 28 355 q 28 523 124 627 q 221 731 377 731 q 534 731 630 627 q 727 523 727 355 q 727 186 631 83 q 534 -21 377 -21 q 220 -21 124 83 q 28 186 28 355 z"},"(":{"x_min":0,"x_max":324,"ha":324,"o":"m 206 325 q 206 199 242 73 q 278 -52 278 -57 q 278 -86 261 -103 q 245 -119 216 -119 q 192 -119 174 -102 q 155 -84 140 -48 q 106 31 88 128 q 70 225 70 325 q 70 417 86 508 q 102 598 133 678 q 152 728 171 749 q 190 769 216 769 q 245 769 261 753 q 278 736 278 707 q 278 702 242 576 q 206 450 206 325 z"},"C":{"x_min":0,"x_max":602,"ha":602,"o":"m 376 -21 q 219 -21 124 82 q 28 186 28 355 q 28 521 127 626 q 226 731 378 731 q 467 731 529 697 q 591 663 591 617 q 591 588 570 566 q 550 544 522 544 q 506 544 459 558 q 411 572 379 572 q 299 572 252 512 q 204 452 204 351 q 204 252 253 194 q 301 136 384 136 q 422 136 471 155 q 520 173 535 173 q 560 173 580 151 q 600 130 600 102 q 600 52 535 15 q 471 -21 376 -21 z"},"W":{"x_min":0,"x_max":914,"ha":914,"o":"m 355 91 q 343 42 313 17 q 283 -9 238 -9 q 191 -9 166 16 q 140 40 127 98 l 9 612 q 8 618 7 625 q 7 633 7 648 q 7 681 30 701 q 52 721 89 721 q 120 721 141 703 q 161 684 167 650 l 252 198 l 370 652 q 379 686 402 703 q 424 720 460 720 q 495 720 517 703 q 539 685 548 650 l 664 198 l 749 639 q 757 682 777 701 q 796 720 831 720 q 866 720 889 699 q 911 678 911 645 q 911 634 909 622 q 908 609 905 597 l 781 98 q 765 34 741 12 q 717 -9 669 -9 q 625 -9 599 13 q 573 35 561 82 l 455 488 z"},"A":{"x_min":0,"x_max":625,"ha":625,"o":"m 179 134 l 155 62 q 143 26 123 8 q 104 -11 77 -11 q 43 -11 22 11 q 0 33 0 67 q 0 81 2 92 q 4 104 8 114 l 193 616 q 213 670 243 696 q 273 721 317 721 q 358 721 389 697 q 419 673 436 627 l 616 116 q 622 100 624 87 q 627 75 627 65 q 627 31 604 10 q 582 -11 547 -11 q 516 -11 495 8 q 474 28 462 68 l 442 134 z m 225 283 l 395 283 l 313 547 z"},"f":{"x_min":0,"x_max":351,"ha":351,"o":"m 246 525 l 269 525 q 316 525 343 506 q 369 488 369 455 q 369 421 344 404 q 318 387 269 387 l 246 387 l 246 108 q 246 50 226 22 q 206 -7 165 -7 q 125 -7 105 21 q 86 50 86 108 l 86 387 l 80 387 q 39 387 15 406 q -9 424 -9 455 q -9 487 15 505 q 39 522 86 525 q 86 529 85 538 q 85 547 85 552 q 85 654 127 708 q 170 763 249 763 q 297 763 325 742 q 353 721 353 684 q 353 655 337 640 q 321 625 281 619 q 258 615 252 606 q 246 597 246 560 z"},"Q":{"x_min":0,"x_max":755,"ha":755,"o":"m 431 144 q 406 166 396 183 q 386 199 386 218 q 386 246 404 265 q 421 284 448 284 q 465 284 483 274 q 501 264 529 237 q 540 266 545 294 q 550 323 550 353 q 550 456 503 517 q 456 577 377 577 q 298 577 251 517 q 204 456 204 353 q 204 253 252 193 q 299 134 379 134 q 393 134 405 136 q 417 139 431 144 z m 553 23 q 517 0 474 -10 q 431 -21 377 -21 q 220 -21 124 83 q 28 186 28 355 q 28 523 124 627 q 221 731 377 731 q 534 731 630 627 q 727 523 727 355 q 727 292 710 234 q 694 176 662 126 l 712 80 q 728 65 738 46 q 747 27 747 10 q 747 -19 727 -39 q 706 -60 678 -60 q 661 -60 643 -52 q 625 -43 607 -27 z"},"w":{"x_min":0,"x_max":757,"ha":757,"o":"m 611 472 q 620 503 639 520 q 658 537 685 537 q 718 537 739 516 q 759 495 759 460 q 759 451 756 439 q 754 428 747 408 l 626 64 q 611 22 590 4 q 569 -13 536 -13 q 500 -13 476 8 q 452 29 441 69 l 376 320 l 315 64 q 306 28 282 7 q 259 -13 225 -13 q 189 -13 168 5 q 146 23 130 69 l 5 418 q 0 431 -2 441 q -4 452 -4 461 q -4 494 18 517 q 40 539 72 539 q 102 539 122 520 q 142 501 153 462 l 236 174 l 303 463 q 311 498 330 516 q 349 534 376 534 q 406 534 427 515 q 447 497 456 461 l 528 178 z"},"-":{"x_min":0,"x_max":428,"ha":428,"o":"m 112 209 q 75 209 55 227 q 34 245 34 278 q 34 311 55 328 q 75 346 113 346 l 316 346 q 353 346 373 328 q 394 309 394 277 q 394 244 374 226 q 354 209 315 209 z"},"E":{"x_min":0,"x_max":505,"ha":505,"o":"m 357 711 q 415 711 443 692 q 472 673 472 635 q 472 597 444 579 q 415 560 357 560 l 225 560 l 225 433 l 339 433 q 397 433 426 415 q 454 396 454 358 q 454 320 426 302 q 397 283 339 283 l 225 283 l 225 150 l 362 150 q 420 150 449 131 q 477 113 477 75 q 477 37 449 19 q 420 0 362 0 l 173 0 q 110 0 86 21 q 63 43 63 102 l 63 597 q 63 662 88 687 q 113 711 175 711 z"},"s":{"x_min":0,"x_max":435,"ha":435,"o":"m 205 -15 q 121 -15 65 19 q 10 52 10 102 q 10 132 27 152 q 45 173 70 173 q 95 173 143 150 q 191 127 216 127 q 235 127 248 136 q 260 146 260 159 q 260 183 184 213 l 174 217 q 87 253 56 288 q 24 324 24 378 q 24 451 80 499 q 136 548 221 548 q 298 548 352 515 q 406 482 406 438 q 406 410 387 391 q 368 372 341 372 q 323 372 280 391 q 236 410 214 410 q 198 410 188 403 q 178 395 178 383 q 178 361 241 337 q 270 326 287 318 q 358 286 388 251 q 418 215 418 165 q 418 88 358 36 q 297 -15 205 -15 z"},">":{"x_min":0,"x_max":833,"ha":833,"o":"m 129 583 l 704 347 l 704 250 l 129 13 l 129 120 l 566 298 l 129 476 z"},"l":{"x_min":0,"x_max":275,"ha":275,"o":"m 59 648 q 59 707 79 735 q 98 763 138 763 q 177 763 197 735 q 216 706 216 648 l 216 108 q 216 49 197 21 q 178 -7 138 -7 q 98 -7 79 21 q 59 50 59 108 z"},"8":{"x_min":0,"x_max":546,"ha":546,"o":"m 199 516 q 199 486 221 464 q 244 441 273 441 q 304 441 325 463 q 347 485 347 516 q 347 547 325 570 q 304 592 273 592 q 243 592 221 570 q 200 547 199 516 z m 177 226 q 177 184 205 154 q 233 124 273 124 q 313 124 341 154 q 369 183 369 226 q 369 269 341 299 q 313 329 273 329 q 233 329 205 299 q 177 269 177 226 z m 110 389 q 78 417 61 453 q 45 489 45 531 q 45 616 110 674 q 175 731 273 731 q 371 731 436 674 q 501 616 501 531 q 501 489 485 453 q 468 417 436 389 q 483 358 507 313 q 531 269 531 211 q 531 112 458 45 q 385 -21 273 -21 q 161 -21 88 45 q 15 112 15 211 q 15 269 39 314 q 63 359 110 389 z"},"\\":{"x_min":0,"x_max":370,"ha":370,"o":"m 279 35 l -31 622 q -38 636 -42 648 q -45 660 -45 671 q -45 697 -26 715 q -7 733 21 733 q 42 733 58 720 q 74 707 91 675 l 401 88 q 409 74 412 62 q 416 50 416 40 q 416 14 396 -5 q 376 -23 349 -23 q 329 -23 312 -9 q 294 5 279 35 z"},"e":{"x_min":0,"x_max":560,"ha":560,"o":"m 183 325 l 391 325 q 388 365 359 392 q 330 419 289 419 q 249 419 220 394 q 191 368 183 325 z m 185 222 q 190 178 222 153 q 253 128 304 128 q 349 128 403 154 q 458 179 470 179 q 498 179 516 162 q 533 145 533 118 q 533 67 462 27 q 392 -14 296 -14 q 179 -14 101 65 q 23 145 23 265 q 23 386 99 466 q 175 547 288 547 q 397 547 471 471 q 545 396 545 286 q 545 250 529 236 q 513 222 467 222 z"},"b":{"x_min":0,"x_max":602,"ha":602,"o":"m 209 269 q 209 209 238 173 q 267 137 313 137 q 358 137 388 174 q 417 210 417 269 q 417 329 388 366 q 359 403 313 403 q 267 403 238 366 q 209 329 209 269 z m 212 504 q 238 526 269 538 q 300 549 336 549 q 438 549 508 468 q 578 387 578 266 q 578 152 506 71 q 435 -10 336 -10 q 297 -10 264 4 q 231 18 208 44 q 193 19 175 6 q 156 -7 133 -7 q 93 -7 73 21 q 54 50 54 108 l 54 648 q 54 707 73 735 q 93 763 133 763 q 173 763 192 735 q 212 707 212 648 z"},"%":{"x_min":0,"x_max":699,"ha":699,"o":"m 239 40 q 222 11 205 -3 q 188 -17 169 -17 q 145 -17 129 0 q 113 16 113 41 q 113 54 117 67 q 121 80 128 93 l 458 669 q 476 700 492 713 q 508 725 528 725 q 552 725 569 709 q 585 693 585 669 q 585 658 581 645 q 577 631 568 616 z m 485 150 q 485 128 500 113 q 515 97 536 97 q 557 97 572 113 q 587 128 587 150 q 587 172 572 188 q 557 203 536 203 q 515 203 500 188 q 485 172 485 150 z m 383 150 q 383 217 427 263 q 472 309 536 309 q 600 309 644 263 q 689 216 689 150 q 689 84 644 38 q 600 -9 536 -9 q 472 -9 427 37 q 383 83 383 150 z m 112 561 q 112 539 127 523 q 142 508 163 508 q 184 508 199 524 q 215 540 215 561 q 215 583 200 598 q 185 614 163 614 q 142 614 127 598 q 112 583 112 561 z m 10 561 q 10 628 54 674 q 99 720 163 720 q 227 720 271 674 q 316 627 316 561 q 316 495 271 448 q 227 402 163 402 q 99 402 54 448 q 10 494 10 561 z"},"m":{"x_min":0,"x_max":878,"ha":878,"o":"m 54 108 l 54 425 q 54 483 74 512 q 93 541 133 541 q 156 541 175 528 q 193 515 208 489 q 232 516 263 528 q 294 541 334 541 q 385 541 424 522 q 463 504 491 467 q 527 506 564 524 q 601 541 650 541 q 734 541 781 487 q 828 433 828 334 l 828 108 q 828 50 809 21 q 789 -7 749 -7 q 709 -7 690 21 q 671 49 671 108 l 671 286 q 671 348 654 377 q 636 406 599 406 q 558 406 539 377 q 520 349 520 288 l 520 108 q 520 50 500 21 q 481 -7 441 -7 q 401 -7 381 21 q 362 50 362 108 l 362 286 q 362 349 345 377 q 328 406 291 406 q 250 406 231 377 q 212 349 212 288 l 212 108 q 212 50 192 21 q 173 -7 133 -7 q 93 -7 73 21 q 54 50 54 108 z"},"#":{"x_min":0,"x_max":769,"ha":769,"o":"m 346 414 l 303 295 l 426 295 l 468 414 z m 346 715 l 454 715 l 383 512 l 501 512 l 573 715 l 681 715 l 609 512 l 747 512 l 711 414 l 574 414 l 533 296 l 675 296 l 640 198 l 498 198 l 426 -5 l 318 -5 l 390 198 l 271 198 l 198 -5 l 91 -5 l 162 198 l 22 198 l 59 296 l 197 296 l 239 414 l 93 414 l 129 512 l 274 512 z"},",":{"x_min":0,"x_max":231,"ha":231,"o":"m 101 -95 q 86 -122 69 -136 q 51 -150 31 -150 q 4 -150 -16 -132 q -35 -113 -35 -87 q -35 -76 -31 -63 q -27 -51 -19 -37 l 60 107 q 76 136 92 149 q 109 162 130 162 q 158 162 177 144 q 196 126 196 100 q 196 89 192 77 q 188 64 180 49 z"},"n":{"x_min":0,"x_max":589,"ha":589,"o":"m 54 108 l 54 425 q 54 483 73 511 q 93 539 133 539 q 157 539 175 527 q 194 514 208 489 q 233 517 267 529 q 300 542 347 542 q 440 542 490 489 q 539 436 539 334 l 539 108 q 539 50 520 21 q 500 -7 460 -7 q 420 -7 400 21 q 381 50 381 108 l 381 286 q 381 352 361 380 q 341 408 296 408 q 253 408 232 379 q 212 350 212 288 l 212 108 q 212 50 192 21 q 173 -7 133 -7 q 93 -7 73 21 q 54 50 54 108 z"},"h":{"x_min":0,"x_max":589,"ha":589,"o":"m 212 492 q 237 519 269 530 q 300 542 347 542 q 440 542 490 489 q 539 436 539 334 l 539 108 q 539 50 520 21 q 500 -7 460 -7 q 420 -7 400 21 q 381 50 381 108 l 381 286 q 381 352 361 380 q 341 408 296 408 q 253 408 232 379 q 212 350 212 288 l 212 108 q 212 50 192 21 q 173 -7 133 -7 q 93 -7 73 21 q 54 50 54 108 l 54 648 q 54 707 73 735 q 93 763 133 763 q 173 763 192 734 q 212 706 212 648 z"},"z":{"x_min":0,"x_max":447,"ha":447,"o":"m 365 146 q 411 146 438 126 q 464 106 464 72 q 464 37 438 18 q 413 0 364 0 l 77 0 q 30 0 12 11 q -6 22 -6 49 q -6 63 0 79 q 6 94 18 109 l 234 389 l 98 389 q 52 389 25 408 q -1 427 -1 461 q -1 496 24 514 q 50 532 99 532 l 352 532 q 412 532 432 521 q 451 511 451 484 q 451 470 443 453 q 436 436 419 415 l 209 146 z"},"B":{"x_min":0,"x_max":616,"ha":616,"o":"m 225 434 l 293 434 q 329 434 351 453 q 373 472 373 503 q 373 535 351 554 q 329 573 291 573 l 225 573 z m 225 139 l 306 139 q 360 139 388 160 q 416 180 416 219 q 416 260 388 279 q 361 299 303 299 l 225 299 z m 173 0 q 110 0 86 21 q 63 43 63 102 l 63 597 q 63 662 88 687 q 113 711 175 711 l 308 711 q 414 711 472 664 q 530 618 530 534 q 530 482 508 448 q 487 414 442 394 q 512 377 549 330 q 586 284 586 214 q 586 113 519 57 q 453 0 333 0 z"},"K":{"x_min":0,"x_max":616,"ha":616,"o":"m 431 662 q 459 694 478 706 q 497 718 515 718 q 544 718 566 696 q 588 674 588 644 q 588 625 578 605 q 568 585 547 564 l 372 382 l 589 146 q 609 124 619 103 q 630 83 630 66 q 630 36 607 14 q 584 -9 555 -9 q 536 -9 519 1 q 501 11 468 48 l 225 316 l 225 106 q 225 48 205 20 q 185 -9 144 -9 q 103 -9 83 20 q 63 48 63 106 l 63 605 q 63 663 83 692 q 103 720 144 720 q 185 720 205 692 q 225 663 225 605 l 225 429 z"},"R":{"x_min":0,"x_max":597,"ha":597,"o":"m 225 281 l 225 106 q 225 48 205 20 q 185 -9 144 -9 q 103 -9 83 20 q 63 48 63 106 l 63 597 q 63 662 88 687 q 113 711 175 711 l 301 711 q 427 711 500 651 q 572 591 572 489 q 572 413 527 362 q 481 311 402 297 l 530 155 q 554 128 566 105 q 578 82 578 62 q 578 30 556 8 q 534 -14 501 -14 q 479 -14 460 -1 q 440 12 414 44 z m 225 389 l 300 389 q 349 389 376 412 q 403 435 403 477 q 403 518 376 540 q 350 562 302 562 l 225 562 z"},"T":{"x_min":0,"x_max":472,"ha":472,"o":"m 155 560 l 95 560 q 37 560 8 579 q -20 597 -20 635 q -20 673 9 692 q 37 711 95 711 l 377 711 q 435 711 463 692 q 492 673 492 635 q 492 597 464 579 q 435 560 377 560 l 317 560 l 317 106 q 317 48 297 20 q 277 -9 236 -9 q 195 -9 175 20 q 155 48 155 106 z"},"P":{"x_min":0,"x_max":606,"ha":606,"o":"m 225 106 q 225 48 205 20 q 185 -9 144 -9 q 103 -9 83 20 q 63 48 63 106 l 63 597 q 63 662 88 687 q 113 711 175 711 l 321 711 q 441 711 511 646 q 581 581 581 469 q 581 356 516 292 q 450 228 334 228 l 225 228 z m 225 375 l 295 375 q 350 375 378 399 q 406 422 406 469 q 406 517 379 539 q 352 562 295 562 l 225 562 z"},"|":{"x_min":0,"x_max":500,"ha":500,"o":"m 200 764 l 301 764 l 301 -236 l 200 -236 z"},"t":{"x_min":0,"x_max":333,"ha":333,"o":"m 86 387 l 80 387 q 39 387 15 406 q -9 424 -9 455 q -9 487 15 505 q 39 522 86 525 l 86 594 q 86 652 105 681 q 125 709 165 709 q 205 709 224 681 q 243 652 243 594 l 243 525 l 257 525 q 304 525 330 506 q 356 488 356 455 q 356 421 331 404 q 306 387 256 387 l 243 387 l 243 108 q 243 49 224 21 q 205 -7 165 -7 q 125 -7 105 21 q 86 50 86 108 z"},"M":{"x_min":0,"x_max":863,"ha":863,"o":"m 21 124 l 108 609 q 119 669 144 695 q 170 720 218 720 q 263 720 291 696 q 319 672 331 624 l 439 199 l 540 625 q 551 672 579 696 q 607 720 651 720 q 701 720 728 693 q 755 666 765 603 l 844 114 q 846 103 847 93 q 848 83 848 75 q 848 36 826 13 q 803 -10 766 -10 q 732 -10 712 14 q 692 37 686 85 l 635 510 q 576 255 547 149 q 519 44 503 19 q 493 3 477 -3 q 461 -10 435 -10 q 394 -10 373 9 q 351 27 340 72 l 235 510 l 179 95 q 171 40 151 15 q 130 -10 94 -10 q 59 -10 37 13 q 15 36 15 75 q 15 84 17 97 q 18 109 21 124 z"},"g":{"x_min":0,"x_max":597,"ha":597,"o":"m 394 66 q 368 29 333 10 q 297 -8 251 -8 q 155 -8 89 71 q 23 149 23 266 q 23 384 94 464 q 166 545 268 545 q 308 545 339 531 q 370 518 394 489 q 407 512 426 526 q 444 539 464 539 q 504 539 524 511 q 543 483 543 425 l 543 108 q 543 21 534 -29 q 526 -78 506 -110 q 471 -168 410 -198 q 350 -228 266 -228 q 164 -228 100 -195 q 35 -163 35 -113 q 35 -83 54 -63 q 74 -44 103 -44 q 117 -44 171 -65 q 225 -86 272 -86 q 331 -86 363 -51 q 395 -17 395 47 q 395 50 395 56 q 394 62 394 66 z m 186 266 q 186 207 215 170 q 244 134 289 134 q 334 134 364 171 q 393 208 393 266 q 393 323 364 359 q 334 395 289 395 q 244 395 215 359 q 186 323 186 266 z"},"j":{"x_min":0,"x_max":275,"ha":275,"o":"m 47 672 q 47 709 74 736 q 101 763 138 763 q 175 763 202 736 q 228 709 228 672 q 228 634 202 607 q 176 581 138 581 q 100 581 73 607 q 47 634 47 672 z m 216 -105 q 216 -164 197 -192 q 178 -220 138 -220 q 98 -220 79 -192 q 59 -164 59 -105 l 59 425 q 59 483 78 511 q 98 539 138 539 q 178 539 197 511 q 216 483 216 425 z"},"i":{"x_min":0,"x_max":275,"ha":275,"o":"m 47 672 q 47 709 74 736 q 101 763 138 763 q 175 763 202 736 q 228 709 228 672 q 228 634 202 607 q 176 581 138 581 q 100 581 73 607 q 47 634 47 672 z m 216 108 q 216 49 197 21 q 178 -7 138 -7 q 98 -7 79 21 q 59 50 59 108 l 59 425 q 59 483 78 511 q 98 539 138 539 q 178 539 197 511 q 216 483 216 425 z"},"y":{"x_min":0,"x_max":481,"ha":481,"o":"m 343 476 q 355 509 372 524 q 388 539 413 539 q 448 539 469 519 q 490 499 490 464 q 490 453 487 439 q 483 425 477 409 l 237 -161 q 222 -197 206 -211 q 190 -225 168 -225 q 132 -225 111 -205 q 90 -184 90 -149 q 90 -136 93 -122 q 97 -108 103 -95 l 168 46 l 9 417 q 5 426 3 436 q 1 447 1 461 q 1 494 23 517 q 45 539 77 539 q 105 539 123 523 q 141 507 157 463 l 246 225 z"},"@":{"x_min":0,"x_max":1000,"ha":1000,"o":"m 570 133 q 543 92 508 73 q 473 53 425 53 q 348 53 307 95 q 267 137 267 219 q 267 336 335 415 q 403 494 503 494 q 542 494 571 478 q 600 462 618 430 l 644 478 l 731 478 l 659 186 q 658 181 657 175 q 656 169 656 166 q 656 149 667 140 q 679 132 702 132 q 721 132 742 142 q 763 151 781 169 q 823 208 844 260 q 866 312 866 375 q 866 492 776 568 q 685 643 542 643 q 473 643 414 626 q 354 610 306 577 q 223 521 178 438 q 134 354 134 255 q 134 105 235 15 q 336 -74 505 -74 q 584 -74 659 -50 q 735 -26 800 19 l 840 -38 q 765 -94 681 -123 q 598 -151 507 -151 q 413 -151 334 -127 q 256 -104 195 -57 q 119 2 82 79 q 44 156 44 254 q 44 335 70 409 q 95 483 145 544 q 217 632 319 678 q 420 723 545 723 q 627 723 700 701 q 772 679 826 638 q 892 587 925 521 q 957 456 957 373 q 957 292 925 224 q 893 156 833 108 q 799 81 759 66 q 718 52 675 52 q 623 52 597 72 q 571 93 570 133 z m 594 342 q 588 381 566 402 q 544 423 509 423 q 453 423 412 362 q 371 302 371 217 q 371 172 391 148 q 411 125 448 125 q 489 125 522 156 q 556 187 568 236 z"},".":{"x_min":0,"x_max":231,"ha":231,"o":"m 25 84 q 25 122 52 148 q 79 175 116 175 q 153 175 180 148 q 206 122 206 84 q 206 46 180 20 q 154 -7 116 -7 q 78 -7 51 20 q 25 46 25 84 z"},"p":{"x_min":0,"x_max":602,"ha":602,"o":"m 209 264 q 209 204 238 167 q 267 130 313 130 q 359 130 388 167 q 417 204 417 264 q 417 322 387 359 q 358 396 313 396 q 268 396 238 359 q 209 323 209 264 z m 212 -105 q 212 -164 192 -192 q 173 -220 133 -220 q 93 -220 73 -192 q 54 -164 54 -105 l 54 425 q 54 483 73 511 q 93 539 133 539 q 157 539 175 527 q 194 514 208 489 q 232 516 265 529 q 298 543 338 543 q 439 543 509 464 q 578 385 578 266 q 578 148 507 65 q 436 -17 336 -17 q 300 -17 270 -6 q 239 6 212 29 z"},"X":{"x_min":0,"x_max":579,"ha":579,"o":"m 144 53 q 120 20 100 5 q 80 -9 59 -9 q 31 -9 8 13 q -14 35 -14 62 q -14 79 -7 95 q 0 112 22 144 l 195 385 l 65 567 q 43 597 36 614 q 29 631 29 647 q 29 678 51 699 q 74 720 108 720 q 128 720 148 706 q 168 691 191 658 l 291 518 l 393 660 q 416 691 437 706 q 458 721 479 721 q 506 721 528 699 q 550 677 550 651 q 550 620 515 570 l 514 569 l 383 387 l 556 143 q 558 141 561 137 q 593 90 593 61 q 593 34 571 12 q 548 -9 519 -9 q 496 -9 475 5 q 455 20 431 52 l 287 254 z"},"*":{"x_min":0,"x_max":500,"ha":500,"o":"m 211 473 q 203 467 188 455 q 148 421 124 421 q 105 421 92 436 q 78 451 78 471 q 78 507 164 537 q 170 539 173 540 q 170 541 164 543 q 78 573 78 609 q 78 629 92 644 q 105 659 124 659 q 149 659 190 625 q 204 614 211 608 q 209 621 205 644 q 201 667 201 677 q 201 702 214 716 q 228 731 250 731 q 272 731 286 717 q 300 702 300 678 q 300 666 295 643 q 291 620 289 608 q 294 612 305 621 q 351 659 376 659 q 395 659 408 644 q 422 629 422 609 q 422 588 406 574 q 390 561 327 540 q 390 519 406 505 q 422 492 422 471 q 422 451 408 436 q 395 421 376 421 q 351 421 307 458 q 295 468 289 473 q 291 461 295 438 q 300 414 300 403 q 300 378 286 364 q 272 349 250 349 q 228 349 214 364 q 201 378 201 403 q 201 414 205 437 q 209 460 211 473 z"},"Y":{"x_min":0,"x_max":516,"ha":516,"o":"m 386 660 q 407 689 429 705 q 452 721 473 721 q 500 721 522 699 q 544 677 544 651 q 544 621 510 573 l 507 569 l 343 335 l 343 106 q 343 48 323 20 q 303 -9 262 -9 q 221 -9 201 20 q 181 48 181 106 l 181 335 l 17 567 l 16 568 q -19 617 -19 649 q -19 678 3 699 q 26 720 59 720 q 79 720 99 705 q 119 690 142 658 l 263 485 z"},"c":{"x_min":0,"x_max":475,"ha":475,"o":"m 23 266 q 23 391 98 468 q 172 546 294 546 q 373 546 421 518 q 470 490 470 445 q 470 416 452 397 q 433 378 405 378 q 393 378 355 390 q 318 402 294 402 q 245 402 215 365 q 185 329 185 269 q 185 207 216 172 q 247 136 300 136 q 326 136 362 148 q 397 160 408 160 q 434 160 452 140 q 469 121 469 92 q 469 48 416 18 q 363 -13 284 -13 q 168 -13 95 64 q 23 142 23 266 z"},"!":{"x_min":0,"x_max":296,"ha":296,"o":"m 226 323 q 226 265 207 236 q 188 208 148 208 q 109 208 89 237 q 70 265 70 323 l 70 617 q 70 674 89 703 q 109 731 148 731 q 188 731 207 703 q 226 675 226 617 z m 61 67 q 61 104 86 129 q 112 154 148 154 q 184 154 209 128 q 235 103 235 67 q 235 31 209 5 q 184 -21 148 -21 q 112 -21 86 5 q 61 30 61 67 z"},"/":{"x_min":0,"x_max":370,"ha":370,"o":"m 91 35 q 76 5 59 -9 q 42 -23 21 -23 q -6 -23 -26 -5 q -45 14 -45 40 q -45 51 -42 63 q -38 75 -31 88 l 280 675 q 297 707 313 720 q 330 733 350 733 q 378 733 397 715 q 416 697 416 671 q 416 661 412 649 q 409 638 401 622 z"},"[":{"x_min":0,"x_max":324,"ha":324,"o":"m 242 752 q 279 752 299 738 q 319 724 319 699 q 319 672 300 658 q 281 645 241 645 l 194 645 l 194 -41 l 242 -41 q 278 -41 299 -55 q 319 -69 319 -95 q 319 -122 300 -135 q 281 -148 241 -148 l 169 -148 q 105 -148 82 -126 q 58 -104 58 -46 l 58 638 q 58 703 83 728 q 108 752 170 752 z"},"6":{"x_min":0,"x_max":560,"ha":560,"o":"m 187 228 q 187 187 214 158 q 241 129 279 129 q 317 129 344 158 q 371 187 371 228 q 371 269 344 297 q 317 326 279 326 q 241 326 214 297 q 187 269 187 228 z m 278 454 q 298 457 312 458 q 325 459 335 459 q 419 459 479 393 q 538 327 538 230 q 538 125 461 52 q 385 -21 272 -21 q 163 -21 92 51 q 22 124 22 236 q 22 312 64 404 q 105 495 188 597 q 250 673 285 703 q 321 733 348 733 q 379 733 402 710 q 426 688 426 658 q 426 628 367 564 q 309 499 278 454 z"},"r":{"x_min":0,"x_max":380,"ha":380,"o":"m 54 108 l 54 425 q 54 483 73 511 q 93 539 133 539 q 157 539 175 527 q 194 514 208 489 q 232 515 260 529 q 287 542 315 542 q 348 542 371 519 q 395 496 395 464 q 395 417 308 385 q 277 374 261 366 q 231 352 222 335 q 212 317 212 272 l 212 108 q 212 50 192 21 q 173 -7 133 -7 q 93 -7 73 21 q 54 50 54 108 z"},"2":{"x_min":0,"x_max":523,"ha":523,"o":"m 388 150 q 446 150 475 131 q 503 113 503 75 q 503 37 475 19 q 446 0 388 0 l 101 0 q 52 0 28 19 q 4 37 4 75 q 4 109 102 216 q 122 238 133 250 q 241 369 277 423 q 313 478 313 512 q 313 542 296 561 q 278 580 252 580 q 228 580 208 561 q 188 542 175 507 q 157 458 140 441 q 124 425 96 425 q 61 425 38 448 q 16 471 16 508 q 16 538 30 574 q 43 611 66 639 q 102 684 151 707 q 200 731 257 731 q 358 731 421 672 q 485 612 485 520 q 485 451 437 375 q 389 298 239 150 z"},"{":{"x_min":0,"x_max":500,"ha":500,"o":"m 431 721 l 431 619 q 427 619 419 620 q 411 620 408 620 q 359 620 342 601 q 324 583 324 522 l 324 405 q 324 333 302 302 q 280 272 223 259 q 280 246 302 216 q 324 186 324 114 l 324 -4 q 324 -64 341 -83 q 358 -101 408 -101 q 411 -101 419 -101 q 427 -100 431 -100 l 431 -202 q 424 -202 412 -203 q 400 -203 394 -203 q 345 -203 312 -197 q 280 -191 257 -179 q 229 -163 218 -135 q 206 -106 206 -37 l 206 86 q 206 153 181 181 q 156 209 97 209 q 94 209 87 208 q 81 208 77 208 l 77 310 q 81 310 87 310 q 94 309 97 309 q 156 309 181 337 q 206 366 206 433 l 206 555 q 206 625 218 653 q 229 682 257 698 q 280 710 312 716 q 345 722 394 722 q 400 722 412 722 q 424 721 431 721 z"},"9":{"x_min":0,"x_max":560,"ha":560,"o":"m 282 258 q 258 255 247 254 q 236 253 230 253 q 142 253 82 318 q 22 383 22 478 q 22 585 98 659 q 174 732 288 732 q 397 732 467 660 q 537 589 537 476 q 537 399 495 307 q 453 216 371 114 q 309 37 274 7 q 239 -22 212 -22 q 181 -22 157 1 q 134 24 134 54 q 134 83 192 148 q 251 213 282 258 z m 373 484 q 373 525 346 553 q 319 582 281 582 q 243 582 216 553 q 189 525 189 484 q 189 443 216 415 q 243 386 281 386 q 319 386 346 415 q 373 443 373 484 z"}," ":{"x_min":0,"x_max":324,"ha":324,"o":""},"I":{"x_min":0,"x_max":296,"ha":296,"o":"m 229 106 q 229 48 209 20 q 189 -9 148 -9 q 107 -9 87 20 q 67 48 67 106 l 67 605 q 67 663 87 692 q 107 720 148 720 q 189 720 209 692 q 229 663 229 605 z"},"H":{"x_min":0,"x_max":748,"ha":748,"o":"m 225 287 l 225 106 q 225 48 205 20 q 185 -9 144 -9 q 103 -9 83 20 q 63 48 63 106 l 63 605 q 63 663 83 692 q 103 720 144 720 q 185 720 205 692 q 225 663 225 605 l 225 437 l 523 437 l 523 605 q 523 663 543 692 q 563 720 604 720 q 645 720 665 692 q 685 663 685 605 l 685 106 q 685 48 665 20 q 645 -9 604 -9 q 563 -9 543 20 q 523 48 523 106 l 523 287 z"},"4":{"x_min":0,"x_max":623,"ha":623,"o":"m 185 296 l 352 296 l 352 568 z m 500 153 l 500 78 q 500 37 479 14 q 458 -9 421 -9 q 386 -9 369 14 q 352 36 352 83 l 352 153 l 101 153 q 51 153 27 168 q 3 184 3 216 q 3 250 36 301 q 39 306 41 309 l 253 644 q 280 687 307 704 q 334 721 373 721 q 433 721 466 678 q 500 635 500 557 l 500 296 l 509 296 l 524 296 q 564 296 588 278 q 612 259 612 228 q 612 190 588 171 q 564 153 515 153 z"},"~":{"x_min":0,"x_max":833,"ha":833,"o":"m 747 392 l 747 284 q 696 250 651 233 q 606 217 562 217 q 540 217 517 221 q 495 225 472 232 q 460 236 438 244 q 331 281 275 281 q 233 281 188 262 q 143 244 87 204 l 87 312 q 139 347 187 365 q 234 382 276 382 q 333 382 418 354 l 420 353 q 429 350 447 344 q 522 317 564 317 q 605 317 649 335 q 693 353 747 392 z"},"D":{"x_min":0,"x_max":697,"ha":697,"o":"m 225 150 l 299 150 q 396 150 444 203 q 492 256 492 364 q 492 462 443 511 q 394 560 296 560 l 225 560 z m 305 711 q 373 711 425 699 q 477 687 517 661 q 587 616 628 537 q 668 458 668 363 q 668 195 575 98 q 482 0 321 0 l 173 0 q 110 0 86 21 q 63 43 63 102 l 63 597 q 63 662 88 687 q 113 711 175 711 z"},"^":{"x_min":0,"x_max":1000,"ha":1000,"o":"m 438 713 l 561 713 l 796 439 l 681 439 l 500 620 l 318 439 l 203 439 z"},"0":{"x_min":0,"x_max":648,"ha":648,"o":"m 325 582 q 266 582 231 522 q 197 461 197 356 q 197 250 231 189 q 266 129 325 129 q 385 129 419 189 q 453 250 453 356 q 453 461 419 522 q 384 582 325 582 z m 28 355 q 28 528 108 630 q 188 731 324 731 q 460 731 541 630 q 621 528 621 355 q 621 182 541 80 q 460 -21 324 -21 q 188 -21 108 80 q 28 182 28 355 z"},"F":{"x_min":0,"x_max":488,"ha":488,"o":"m 357 711 q 415 711 443 692 q 472 673 472 635 q 472 597 444 579 q 415 560 357 560 l 225 560 l 225 433 l 339 433 q 397 433 426 415 q 454 396 454 358 q 454 320 426 302 q 397 283 339 283 l 225 283 l 225 106 q 225 48 205 20 q 185 -9 144 -9 q 103 -9 83 20 q 63 48 63 106 l 63 597 q 63 662 88 687 q 113 711 175 711 z"},"`":{"x_min":0,"x_max":500,"ha":500,"o":"m 220 608 l 144 692 q 131 706 125 720 q 118 734 118 746 q 118 773 136 791 q 154 808 181 808 q 198 808 212 800 q 227 792 238 776 l 311 676 q 319 665 324 654 q 328 643 328 632 q 328 607 313 592 q 298 577 274 577 q 261 577 248 585 q 234 592 220 608 z"},"k":{"x_min":0,"x_max":514,"ha":514,"o":"m 212 358 l 346 497 q 368 520 387 530 q 407 540 427 540 q 455 540 474 522 q 493 504 493 479 q 493 460 482 440 q 472 420 453 403 l 347 305 l 494 132 q 510 113 518 94 q 525 76 525 56 q 525 29 504 10 q 482 -9 451 -9 q 428 -9 408 3 q 388 15 369 40 l 212 250 l 212 108 q 212 49 192 20 q 173 -9 133 -9 q 93 -9 74 20 q 54 49 54 108 l 54 648 q 54 707 73 735 q 93 763 133 763 q 173 763 192 734 q 212 706 212 648 z"},"u":{"x_min":0,"x_max":579,"ha":579,"o":"m 51 215 l 51 425 q 51 483 70 511 q 90 539 130 539 q 169 539 189 511 q 208 483 208 425 l 208 247 q 208 184 227 158 q 246 132 289 132 q 332 132 351 158 q 370 184 370 247 l 370 425 q 370 483 389 511 q 409 539 449 539 q 489 539 508 511 q 527 483 527 425 l 527 215 q 527 103 466 43 q 405 -16 289 -16 q 173 -16 112 43 q 51 103 51 215 z"},"]":{"x_min":0,"x_max":324,"ha":324,"o":"m 82 752 l 154 752 q 216 752 241 728 q 266 703 266 638 l 266 -46 q 266 -105 243 -126 q 219 -148 156 -148 l 83 -148 q 43 -148 24 -135 q 5 -122 5 -95 q 5 -69 25 -55 q 45 -41 82 -41 l 130 -41 l 130 645 l 83 645 q 43 645 24 658 q 5 672 5 699 q 5 724 25 738 q 45 752 82 752 z"},"U":{"x_min":0,"x_max":736,"ha":736,"o":"m 63 305 l 63 605 q 63 663 83 692 q 103 720 144 720 q 185 720 205 692 q 225 663 225 605 l 225 323 q 225 229 261 181 q 297 134 368 134 q 439 134 475 181 q 511 229 511 323 l 511 605 q 511 663 531 692 q 551 720 592 720 q 633 720 653 692 q 673 663 673 605 l 673 305 q 673 150 592 65 q 512 -21 368 -21 q 224 -21 144 65 q 63 150 63 305 z"},"o":{"x_min":0,"x_max":580,"ha":580,"o":"m 186 268 q 186 208 215 171 q 244 134 290 134 q 336 134 365 171 q 394 208 394 268 q 394 326 365 363 q 335 400 290 400 q 244 400 215 363 q 186 327 186 268 z m 23 266 q 23 389 98 469 q 174 548 290 548 q 407 548 481 469 q 556 390 556 266 q 556 143 481 63 q 407 -16 290 -16 q 174 -16 98 63 q 23 143 23 266 z"},"N":{"x_min":0,"x_max":748,"ha":748,"o":"m 225 106 q 225 48 205 20 q 185 -9 144 -9 q 103 -9 83 20 q 63 48 63 106 l 63 611 q 63 666 82 692 q 100 719 138 719 q 163 719 182 707 q 202 695 224 667 l 523 272 l 523 605 q 523 663 543 692 q 563 720 604 720 q 645 720 665 692 q 685 663 685 605 l 685 88 q 685 36 667 11 q 649 -13 611 -13 q 585 -13 563 1 q 542 15 518 46 l 225 433 z"},"+":{"x_min":0,"x_max":833,"ha":833,"o":"m 367 596 l 466 596 l 466 347 l 709 347 l 709 250 l 466 250 l 466 0 l 367 0 l 367 250 l 124 250 l 124 347 l 367 347 z"},"G":{"x_min":0,"x_max":722,"ha":722,"o":"m 525 277 l 468 277 q 409 277 382 295 q 354 313 354 352 q 354 391 382 409 q 410 428 468 428 l 587 428 q 647 428 674 403 q 700 377 700 320 q 700 168 609 73 q 517 -21 368 -21 q 218 -21 123 84 q 28 189 28 356 q 28 528 125 630 q 223 732 387 732 q 496 732 573 687 q 649 642 649 584 q 649 554 628 531 q 608 508 580 508 q 562 508 500 542 q 437 577 382 577 q 299 577 251 519 q 203 460 203 359 q 203 256 251 195 q 300 134 381 134 q 445 134 484 173 q 523 211 525 277 z"},"q":{"x_min":0,"x_max":602,"ha":602,"o":"m 392 264 q 392 323 363 360 q 334 396 289 396 q 244 396 214 359 q 185 322 185 264 q 185 204 214 167 q 243 130 289 130 q 335 130 364 167 q 392 203 392 264 z m 390 -105 l 390 29 q 363 6 332 -6 q 301 -17 265 -17 q 165 -17 94 65 q 23 148 23 266 q 23 384 93 464 q 162 543 264 543 q 304 543 337 529 q 370 516 394 489 q 408 514 427 527 q 446 539 469 539 q 509 539 528 511 q 547 483 547 425 l 547 -105 q 547 -163 528 -192 q 508 -220 469 -220 q 429 -220 409 -192 q 390 -164 390 -105 z"},"d":{"x_min":0,"x_max":602,"ha":602,"o":"m 185 269 q 185 210 214 174 q 244 137 289 137 q 334 137 363 174 q 392 210 392 269 q 392 329 364 366 q 335 403 289 403 q 243 403 214 366 q 185 329 185 269 z m 394 44 q 370 18 337 4 q 305 -10 266 -10 q 167 -10 95 72 q 23 154 23 271 q 23 388 94 469 q 165 549 266 549 q 303 549 333 538 q 363 527 390 504 l 390 648 q 390 707 409 735 q 429 763 469 763 q 508 763 528 735 q 547 706 547 648 l 547 108 q 547 49 528 21 q 509 -7 469 -7 q 446 -7 427 6 q 408 19 394 44 z"},"1":{"x_min":0,"x_max":359,"ha":359,"o":"m 275 108 q 275 50 255 21 q 235 -7 193 -7 q 151 -7 131 21 q 111 50 111 108 l 111 561 l 96 561 q 42 561 15 580 q -13 599 -13 636 q -13 674 15 692 q 44 711 102 711 l 183 711 q 232 711 254 685 q 275 658 275 596 z"},"5":{"x_min":0,"x_max":514,"ha":514,"o":"m 201 476 q 220 480 237 483 q 254 485 270 485 q 362 485 423 418 q 484 351 484 249 q 484 132 408 55 q 333 -21 215 -21 q 123 -21 55 22 q -12 65 -12 121 q -12 152 7 173 q 26 193 55 193 q 76 193 125 162 q 175 132 213 132 q 255 132 284 163 q 314 195 314 240 q 314 286 290 313 q 266 340 224 340 q 203 340 163 327 q 124 315 105 315 q 74 315 58 333 q 42 351 42 385 q 42 391 43 402 q 44 414 47 440 l 70 625 q 76 674 97 692 q 118 711 176 711 l 373 711 q 424 711 451 692 q 477 673 477 636 q 477 600 452 581 q 427 562 379 562 l 212 562 z"}}}
